<svg xmlns="http://www.w3.org/2000/svg" viewBox="0 0 72 72"><style><![CDATA[.B{stroke-linejoin:round}.C{stroke-width:1.954}.D{fill:#029d74}.E{stroke:#029d74}]]></style><path d="M51.2 67.839c.2 0 .4-.2.4-.4v-1.3c0-.2-.2-.4-.4-.4H15.9c-.2 0-.4-.2-.4-.4v-36.2c0-.1.1-.3.3-.4.2 0 37.2-6.4 40.5-7.6.1-.1.2 0 .2.2v38.753c0 .3.2.5.4.5h1.2a.47.47 0 0 0 .5-.5V18.339c0-.2-.1-.3-.4-.2-4.1 1.6-44.5 9.2-44.5 9.2-.2.1-.3.2-.3.4v39.6c0 .2.2.411.4.4h37.4z" class="D"/><g fill="none" class="E"><path d="M19.958 49.862h32.13v10.463h-32.13z" class="B C"/><path d="M23.006 52.876v4.756zm2.604 0v4.756zm2.603 0v4.756zm2.603 0v4.756zm2.604 0v4.756zm2.603 0v4.756zm2.604 0v4.756zm2.603 0v4.756zm2.604 0v4.756zm2.603 0v4.756zm2.604 0v4.756z" stroke-width="1.002"/><circle cx="26.982" cy="37.291" r="4.518" class="B C"/></g><path d="M28.843 37.422a1.94 1.94 0 1 1-3.882.026 1.94 1.94 0 1 1 3.881-.079" class="D"/><ellipse cx="45.018" cy="37.291" rx="4.517" ry="4.518" fill="none" class="B C E"/><path d="M46.88 37.422a1.94 1.94 0 1 1-3.882.026 1.94 1.94 0 1 1 3.881-.079" class="D"/><g transform="rotate(349.739 37.884 157.84)" fill="none" class="E"><circle cx="59.093" cy="13.372" r="4.518" class="B C"/><path d="M59.093 25.018v-2.547-5.432z" stroke-width="2.891"/></g></svg>