<?xml version="1.0" encoding="UTF-8"?>
<svg width="15px" height="20px" version="1.1" viewBox="0 0 15 20" xmlns="http://www.w3.org/2000/svg">
 <g transform="translate(-98.354 -138.46)">
  <path d="m109.33 156.88c0.0529 0 0.10584-0.0529 0.10584-0.10584v-0.34395c0-0.0529-0.0529-0.10584-0.10584-0.10584h-8.8106c-0.0529 0-0.10584-0.0529-0.10584-0.10583v-9.5779c0-0.0265 0.0265-0.0794 0.0794-0.10583 0.0529 0 9.8425-3.81 10.716-4.1275 0.0265-0.0265 0.0529 0 0.0529 0.0529v3.4131c0 0.0794 0.0529 0.13229 0.10584 0.13229h0.3175c0.0794 0 0.13229-0.0529 0.13229-0.13229v-4.2069c0-0.0529-0.0265-0.0794-0.10584-0.0529-1.0848 0.42333-11.774 4.5508-11.774 4.5508-0.05292 0.0265-0.07937 0.0529-0.07937 0.10583v10.478c0 0.0529 0.053 0.10881 0.10583 0.10583h9.3662z" fill="#00b6b5"/>
  <rect x="102.12" y="151.59" width="8.5012" height="2.7684" fill="none" stroke="#00b6b5" stroke-linecap="square" stroke-linejoin="round" stroke-width=".517"/>
  <g>
   <g transform="matrix(.26458 0 0 .26458 90.021 135.28)" fill="none" stroke="#00b6b5" stroke-width="1.0016">
    <path d="m48.769 64.675v4.756z"/>
    <path d="m51.373 64.675v4.756z"/>
    <path d="m53.976 64.675v4.756z"/>
    <path d="m56.579 64.675v4.756z"/>
    <path d="m59.183 64.675v4.756z"/>
    <path d="m61.786 64.675v4.756z"/>
    <path d="m64.39 64.675v4.756z"/>
    <path d="m66.993 64.675v4.756z"/>
    <path d="m69.597 64.675v4.756z"/>
    <path d="m72.2 64.675v4.756z"/>
    <path d="m74.804 64.675v4.756z"/>
   </g>
   <g transform="matrix(.26458 0 0 .26458 89.275 136.2)" fill="#00b6b5">
    <circle cx="53.566" cy="45.591" r="4.5182" fill="none" stroke="#00b6b5" stroke-linecap="square" stroke-linejoin="round" stroke-width="1.954"/>
    <path d="m55.427 45.722a1.941 1.941 0 0 1-1.9279 1.941 1.941 1.941 0 0 1-1.954-1.9148 1.941 1.941 0 0 1 1.9015-1.9668 1.941 1.941 0 0 1 1.9796 1.8882" fill="#00b6b5"/>
    <g transform="translate(19.762 .64701)">
     <circle cx="51.84" cy="44.944" r="4.5182" fill="none" stroke="#00b6b5" stroke-linecap="square" stroke-linejoin="round" stroke-width="1.954"/>
     <path d="m53.702 45.075a1.941 1.941 0 0 1-1.9279 1.941 1.941 1.941 0 0 1-1.954-1.9148 1.941 1.941 0 0 1 1.9015-1.9668 1.941 1.941 0 0 1 1.9796 1.8882" fill="#00b6b5"/>
    </g>
   </g>
   <g transform="matrix(.2521 -.080322 .080322 .2521 89.328 142.29)" stroke="#00b6b5">
    <circle cx="59.093" cy="13.372" r="4.5182" fill="none" stroke-linecap="square" stroke-linejoin="round" stroke-width="1.954"/>
    <path d="m59.093 25.018v-7.9798z" fill="#00b6b5" stroke-width="2.8913"/>
   </g>
  </g>
 </g>
</svg>
